<svg xmlns="http://www.w3.org/2000/svg" width="21.212" height="21.212" viewBox="0 0 21.212 21.212">
  <path id="Path_1052" data-name="Path 1052" d="M22.16,17.475l-3-.342a2.351,2.351,0,0,0-1.937.673l-2.173,2.173A17.766,17.766,0,0,1,7.27,12.2l2.185-2.185a2.351,2.351,0,0,0,.673-1.937L9.785,5.1a2.363,2.363,0,0,0-2.35-2.09H5.392A2.343,2.343,0,0,0,3.031,5.454,20.064,20.064,0,0,0,21.794,24.218a2.343,2.343,0,0,0,2.444-2.362V19.813A2.34,2.34,0,0,0,22.16,17.475Z" transform="translate(-3.026 -3.01)" fill="#fff"/>
</svg>
