<svg xmlns="http://www.w3.org/2000/svg" width="27.781" height="27.781" viewBox="0 0 27.781 27.781">
  <g id="date_range-24px_1_" data-name="date_range-24px (1)" transform="translate(0)">
    <path id="Path_454" data-name="Path 454" d="M0,0H27.781V27.781H0Z" fill="none"/>
    <path id="Path_455" data-name="Path 455" d="M20.028,2.428H18.776V1.214a1.252,1.252,0,0,0-2.5,0V2.428H6.259V1.214a1.252,1.252,0,0,0-2.5,0V2.428H2.5A2.455,2.455,0,0,0,.013,4.856L0,21.853a2.466,2.466,0,0,0,2.5,2.428H20.028a2.474,2.474,0,0,0,2.5-2.428v-17A2.474,2.474,0,0,0,20.028,2.428Zm0,18.211a1.237,1.237,0,0,1-1.252,1.214H3.755A1.237,1.237,0,0,1,2.5,20.639V8.5H20.028ZM5.007,10.926h2.5v2.428h-2.5Zm5.007,0h2.5v2.428h-2.5Zm5.007,0h2.5v2.428h-2.5Z" transform="translate(2.625 1.75)" fill="#ff751a"/>
    <path id="Path_456" data-name="Path 456" d="M0,0H2.533V2.533H0ZM5.066,0H7.6V2.533H5.066Zm5.066,0h2.533V2.533H10.131Z" transform="translate(7.516 16.565)" fill="#ff751a"/>
  </g>
</svg>
