<svg xmlns="http://www.w3.org/2000/svg" width="40" height="40" viewBox="0 0 40 40">
  <g id="Help_button" transform="translate(-0.057 -0.194)">
    <circle id="Ellipse_6" data-name="Ellipse 6" cx="20" cy="20" r="20" transform="translate(0.057 0.194)" fill="none"/>
    <g id="Path_497" data-name="Path 497" transform="translate(3.841 3.692)" fill="none">
      <path d="M14.128,23.357h3.114v2.82H14.128Zm2.507-16.3a6.281,6.281,0,0,0-6.9,3.934,1.307,1.307,0,0,0,1.355,1.65H11.4a1.485,1.485,0,0,0,1.37-.945,3.178,3.178,0,0,1,3.581-1.8A2.908,2.908,0,0,1,18.8,12.852c-.156,1.889-2.522,2.3-3.815,4.061,0,.014-.016.014-.016.028-.016.028-.031.042-.047.071a4.539,4.539,0,0,0-.389.705c-.016.042-.047.071-.062.113a.834.834,0,0,0-.031.1,4.8,4.8,0,0,0-.311,1.763h3.114a2.781,2.781,0,0,1,.436-1.509c.031-.042.047-.085.078-.127a3.924,3.924,0,0,1,.436-.55c.016-.014.031-.042.047-.056a5.222,5.222,0,0,1,.514-.479c1.495-1.283,3.519-2.327,3.1-5.02a6.046,6.046,0,0,0-5.216-4.893Z" stroke="none"/>
      <path d="M 17.24263381958008 26.17752838134766 L 17.24263381958008 23.35739707946777 L 14.1284646987915 23.35739707946777 L 14.1284646987915 26.17752838134766 L 17.24263381958008 26.17752838134766 M 17.24263381958008 19.69121742248535 C 17.24263381958008 19.09899711608887 17.41391372680664 18.60546684265137 17.67861366271973 18.18244743347168 C 17.70975494384766 18.1401481628418 17.7253246307373 18.09784698486328 17.75647354125977 18.0555477142334 C 17.88103485107422 17.8581371307373 18.03674507141113 17.67482757568359 18.19245529174805 17.50561714172363 C 18.2080249786377 17.49151802062988 18.22359466552734 17.46331787109375 18.23916435241699 17.44921684265137 C 18.39487457275391 17.28000831604004 18.56615447998047 17.12489700317383 18.75300407409668 16.96979713439941 C 20.24780464172363 15.68663787841797 22.27200508117676 14.64318752288818 21.85159492492676 11.94995784759521 C 21.4778938293457 9.496447563171387 19.34469413757324 7.423647403717041 16.6353645324707 7.057027339935303 L 16.63537406921387 7.057027339935303 C 13.42780590057373 6.634019374847412 10.59389400482178 8.424798011779785 9.737494468688965 10.99111747741699 C 9.45722484588623 11.80895709991455 10.14233493804932 12.64089775085449 11.09215450286865 12.64089775085449 L 11.40357494354248 12.64089775085449 C 12.04197406768799 12.64089775085449 12.55581474304199 12.23197746276855 12.77380466461182 11.69614696502686 C 13.27207469940186 10.44118690490723 14.751296043396 9.581042289733887 16.35509490966797 9.891267776489258 C 17.83432388305664 10.17327785491943 18.92428398132324 11.48463726043701 18.79971504211426 12.85239696502686 C 18.64400482177734 14.74188709259033 16.27724456787109 15.15080738067627 14.98486423492432 16.91338729858398 C 14.98486423492432 16.92748832702637 14.96929454803467 16.92748832702637 14.96929454803467 16.94159698486328 C 14.95372486114502 16.96979713439941 14.93815422058105 16.9838981628418 14.92258453369141 17.01209831237793 C 14.78244495391846 17.22360801696777 14.64230442047119 17.46331787109375 14.53331470489502 17.71712684631348 C 14.51773452758789 17.75942802429199 14.48659420013428 17.78762817382812 14.47102451324463 17.82993698120117 C 14.45545482635498 17.8581371307373 14.45545482635498 17.88633728027344 14.43988418579102 17.92863655090332 C 14.2530345916748 18.40805816650391 14.1284646987915 18.98618698120117 14.1284646987915 19.69121742248535 L 17.24263381958008 19.69121742248535 M 18.74263381958008 27.67752838134766 L 12.6284646987915 27.67752838134766 L 12.6284646987915 21.85739707946777 L 18.74263381958008 21.85739707946777 L 18.74263381958008 27.67752838134766 Z M 18.74263381958008 21.19121742248535 L 12.6284646987915 21.19121742248535 L 12.6284646987915 19.69121742248535 C 12.6284646987915 18.89340972900391 12.75823020935059 18.14229393005371 13.01423645019531 17.45741081237793 C 13.03375720977783 17.38761138916016 13.06180095672607 17.30319404602051 13.1048641204834 17.20975112915039 C 13.13558292388916 17.14085578918457 13.16713523864746 17.08249473571777 13.1940221786499 17.03679466247559 C 13.27695178985596 16.85347938537598 13.37323093414307 16.66960525512695 13.48486423492432 16.48152732849121 L 13.48486423492432 16.42238807678223 L 13.77519416809082 16.02641677856445 C 14.45310401916504 15.10187721252441 15.32981491088867 14.49129772186279 16.03425407409668 14.00067710876465 C 16.89413452148438 13.40181732177734 17.27417373657227 13.10056781768799 17.30478477478027 12.72919750213623 L 17.30589485168457 12.71634769439697 C 17.36009407043457 12.12131786346436 16.79603385925293 11.50234699249268 16.07418441772461 11.36472702026367 C 15.94566440582275 11.33987712860107 15.81980419158936 11.32765769958496 15.69617462158203 11.32765769958496 C 15.01191425323486 11.32765769958496 14.38347434997559 11.70680713653564 14.16793441772461 12.24967765808105 L 14.16322422027588 12.26139736175537 C 13.69873428344727 13.40314769744873 12.61550426483154 14.14089775085449 11.40357494354248 14.14089775085449 L 11.09215450286865 14.14089775085449 C 10.12538433074951 14.14089775085449 9.223414421081543 13.68625736236572 8.679384231567383 12.92472743988037 C 8.169347763061523 12.21078968048096 8.037257194519043 11.33109474182129 8.316645622253418 10.51028156280518 C 8.798434257507324 9.071242332458496 9.789898872375488 7.784254550933838 11.1089448928833 6.885927677154541 C 12.44497489929199 5.976027488708496 14.0318546295166 5.495087623596191 15.69802474975586 5.495087623596191 C 16.07371520996094 5.495087623596191 16.45506477355957 5.520257472991943 16.83150482177734 5.569907665252686 L 16.83651542663574 5.570577621459961 C 18.44597434997559 5.78836727142334 19.97829437255859 6.520537376403809 21.15120506286621 7.63220739364624 C 22.32651329040527 8.746159553527832 23.10174751281738 10.19870376586914 23.3342399597168 11.72243309020996 C 23.55068397521973 13.11446475982666 23.2834529876709 14.37403869628906 22.5399341583252 15.46622753143311 C 21.93983459472656 16.34773826599121 21.12500381469727 16.99152755737305 20.40610504150391 17.55953788757324 C 20.16582489013672 17.7493782043457 19.93888473510742 17.92867660522461 19.73002433776855 18.10796737670898 L 19.7110652923584 18.12397766113281 C 19.57012939453125 18.2409553527832 19.46146965026855 18.34021377563477 19.37267303466797 18.43321990966797 C 19.34720611572266 18.46487617492676 19.31709861755371 18.50004005432129 19.28177261352539 18.53709030151367 C 19.20093536376953 18.6254711151123 19.09283447265625 18.74856376647949 19.02505493164062 18.85598754882812 L 19.01641082763672 18.86968612670898 C 18.99810409545898 18.90226173400879 18.97139930725098 18.94808769226074 18.93609237670898 19.00104713439941 C 18.80245208740234 19.22223472595215 18.74263381958008 19.43625450134277 18.74263381958008 19.69121742248535 L 18.74263381958008 21.19121742248535 Z" stroke="none" fill="#fff"/>
    </g>
  </g>
</svg>
